<svg width="88" height="125" viewBox="0 0 88 125" fill="none" xmlns="http://www.w3.org/2000/svg">
<path fill-rule="evenodd" clip-rule="evenodd" d="M78.1279 71.5625H9.37793C8.54913 71.5625 7.75427 71.8917 7.16822 72.4778C6.58217 73.0638 6.25293 73.8587 6.25293 74.6875V115.312C6.25293 116.141 6.58217 116.936 7.16822 117.522C7.75427 118.108 8.54913 118.438 9.37793 118.438H78.1279C78.9567 118.438 79.7516 118.108 80.3376 117.522C80.9237 116.936 81.2529 116.141 81.2529 115.312V74.6875C81.2529 73.8587 80.9237 73.0638 80.3376 72.4778C79.7516 71.8917 78.9567 71.5625 78.1279 71.5625ZM9.37793 65.3125C6.89153 65.3125 4.50696 66.3002 2.7488 68.0584C0.990649 69.8165 0.00292969 72.2011 0.00292969 74.6875V115.312C0.00292969 117.799 0.990649 120.183 2.7488 121.942C4.50696 123.7 6.89153 124.688 9.37793 124.688H78.1279C80.6143 124.688 82.9989 123.7 84.7571 121.942C86.5152 120.183 87.5029 117.799 87.5029 115.312V74.6875C87.5029 72.2011 86.5152 69.8165 84.7571 68.0584C82.9989 66.3002 80.6143 65.3125 78.1279 65.3125H9.37793Z" fill="#64748B"/>
<path fill-rule="evenodd" clip-rule="evenodd" d="M32.1345 77.9375C32.7825 78.1279 33.3513 78.5232 33.7558 79.064C34.1603 79.6048 34.3787 80.2621 34.3783 80.9375V99.6875C35.2071 99.6875 36.002 100.017 36.588 100.603C37.1741 101.189 37.5033 101.984 37.5033 102.812C37.5033 103.641 37.1741 104.436 36.588 105.022C36.002 105.608 35.2071 105.937 34.3783 105.937V109.062C34.3783 109.891 34.0491 110.686 33.463 111.272C32.877 111.858 32.0821 112.187 31.2533 112.187C30.4245 112.187 29.6296 111.858 29.0436 111.272C28.4575 110.686 28.1283 109.891 28.1283 109.062V105.937H17.1908C16.63 105.937 16.0796 105.786 15.5974 105.5C15.1153 105.213 14.719 104.802 14.4502 104.31C14.1814 103.818 14.05 103.263 14.0698 102.702C14.0896 102.142 14.2598 101.597 14.5627 101.125L28.6252 79.25C28.9897 78.6813 29.5287 78.2461 30.1613 78.0095C30.794 77.7729 31.4863 77.7476 32.1345 77.9375ZM28.1283 99.6875V91.5781L22.9158 99.6875H28.1283ZM78.4002 16.5875C76.5149 12.0377 73.7519 7.90379 70.2689 4.42187L74.6908 0C78.7534 4.06256 81.976 8.88553 84.1746 14.1935C86.3733 19.5015 87.5049 25.1906 87.5049 30.9359C87.5049 36.6813 86.3733 42.3703 84.1746 47.6783C81.976 52.9863 78.7534 57.8093 74.6908 61.8719L70.2689 57.45C75.5135 52.2059 79.0853 45.5244 80.5326 38.2504C81.9799 30.9764 81.2379 23.4366 78.4002 16.5844V16.5875Z" fill="#64748B"/>
<path fill-rule="evenodd" clip-rule="evenodd" d="M61.0752 23.7624C60.1337 21.4872 58.7533 19.4197 57.0127 17.678L61.4315 13.2593C63.7531 15.5808 65.5947 18.3368 66.8511 21.37C68.1076 24.4032 68.7543 27.6542 68.7543 30.9374C68.7543 34.2206 68.1076 37.4716 66.8511 40.5048C65.5947 43.538 63.7531 46.294 61.4315 48.6155L57.0127 44.1968C59.6348 41.5743 61.4203 38.2331 62.1434 34.5958C62.8665 30.9585 62.4948 27.1884 61.0752 23.7624V23.7624ZM30.494 17.678C28.7525 19.4192 27.3711 21.4863 26.4287 23.7614C25.4862 26.0364 25.0011 28.4748 25.0011 30.9374C25.0011 33.4 25.4862 35.8384 26.4287 38.1134C27.3711 40.3885 28.7525 42.4556 30.494 44.1968L26.0752 48.6155C23.7536 46.294 21.912 43.538 20.6556 40.5048C19.3991 37.4716 18.7524 34.2206 18.7524 30.9374C18.7524 27.6542 19.3991 24.4032 20.6556 21.37C21.912 18.3368 23.7536 15.5808 26.0752 13.2593L30.494 17.678V17.678Z" fill="#64748B"/>
<path fill-rule="evenodd" clip-rule="evenodd" d="M17.2375 4.42187C10.2055 11.4544 6.25491 20.9923 6.25491 30.9375C6.25491 40.8827 10.2055 50.4206 17.2375 57.4531L12.8157 61.875C8.75262 57.8124 5.52962 52.9892 3.3307 47.6809C1.13177 42.3726 0 36.6832 0 30.9375C0 25.1918 1.13177 19.5024 3.3307 14.1941C5.52962 8.88578 8.75262 4.06262 12.8157 0L17.2375 4.42187V4.42187Z" fill="#64748B"/>
<path d="M50.0029 30.9375C50.0029 32.5951 49.3444 34.1848 48.1723 35.3569C47.0002 36.529 45.4105 37.1875 43.7529 37.1875C42.0953 37.1875 40.5056 36.529 39.3335 35.3569C38.1614 34.1848 37.5029 32.5951 37.5029 30.9375C37.5029 29.2799 38.1614 27.6902 39.3335 26.5181C40.5056 25.346 42.0953 24.6875 43.7529 24.6875C45.4105 24.6875 47.0002 25.346 48.1723 26.5181C49.3444 27.6902 50.0029 29.2799 50.0029 30.9375Z" fill="#64748B"/>
<path fill-rule="evenodd" clip-rule="evenodd" d="M70.8596 81.7563C71.1784 82.0261 71.4398 82.357 71.6285 82.7296C71.8172 83.1021 71.9293 83.5087 71.9582 83.9253C71.9871 84.3419 71.9322 84.76 71.7968 85.1551C71.6614 85.5501 71.4481 85.914 71.1697 86.2252C70.8913 86.5364 70.5533 86.7887 70.1757 86.9671C69.7981 87.1455 69.3886 87.2464 68.9714 87.2639C68.5542 87.2813 68.1377 87.215 67.7465 87.0688C67.3553 86.9226 66.9974 86.6994 66.694 86.4126C65.1609 85.042 63.2728 84.131 61.2459 83.7839C59.219 83.4367 57.1353 83.6676 55.2336 84.4499C53.3318 85.2322 51.6888 86.5343 50.4929 88.2072C49.2969 89.88 48.5963 91.8559 48.4714 93.9085C48.3465 95.9611 48.8022 98.0074 49.7864 99.813C50.7706 101.619 52.2435 103.11 54.0364 104.118C55.8292 105.125 57.8695 105.607 59.9235 105.508C61.9776 105.409 63.9622 104.734 65.6502 103.559V97.7001H59.394C58.5652 97.7001 57.7703 97.3708 57.1843 96.7848C56.5982 96.1987 56.269 95.4039 56.269 94.5751C56.269 93.7463 56.5982 92.9514 57.1843 92.3654C57.7703 91.7793 58.5652 91.4501 59.394 91.4501H68.7752C69.604 91.4501 70.3989 91.7793 70.9849 92.3654C71.571 92.9514 71.9002 93.7463 71.9002 94.5751V105.066C71.9002 105.505 71.8075 105.94 71.6282 106.341C71.4489 106.742 71.187 107.101 70.8596 107.394C68.3851 109.607 65.3231 111.056 62.043 111.567C58.763 112.078 55.4052 111.629 52.3748 110.273C49.3445 108.918 46.7713 106.714 44.9656 103.929C43.16 101.143 42.1992 97.8947 42.1992 94.5751C42.1992 91.2554 43.16 88.0068 44.9656 85.2212C46.7713 82.4356 49.3445 80.2322 52.3748 78.8768C55.4052 77.5215 58.763 77.0722 62.043 77.5831C65.3231 78.0941 68.3851 79.5434 70.8596 81.7563Z" fill="#64748B"/>
<path fill-rule="evenodd" clip-rule="evenodd" d="M78.1279 71.5625H9.37793C8.54913 71.5625 7.75427 71.8917 7.16822 72.4778C6.58217 73.0638 6.25293 73.8587 6.25293 74.6875V115.312C6.25293 116.141 6.58217 116.936 7.16822 117.522C7.75427 118.108 8.54913 118.438 9.37793 118.438H78.1279C78.9567 118.438 79.7516 118.108 80.3376 117.522C80.9237 116.936 81.2529 116.141 81.2529 115.312V74.6875C81.2529 73.8587 80.9237 73.0638 80.3376 72.4778C79.7516 71.8917 78.9567 71.5625 78.1279 71.5625ZM9.37793 65.3125C6.89153 65.3125 4.50696 66.3002 2.7488 68.0584C0.990649 69.8165 0.00292969 72.2011 0.00292969 74.6875V115.312C0.00292969 117.799 0.990649 120.183 2.7488 121.942C4.50696 123.7 6.89153 124.688 9.37793 124.688H78.1279C80.6143 124.688 82.9989 123.7 84.7571 121.942C86.5152 120.183 87.5029 117.799 87.5029 115.312V74.6875C87.5029 72.2011 86.5152 69.8165 84.7571 68.0584C82.9989 66.3002 80.6143 65.3125 78.1279 65.3125H9.37793Z" fill="#64748B"/>
<path fill-rule="evenodd" clip-rule="evenodd" d="M32.1345 77.9375C32.7825 78.1279 33.3513 78.5232 33.7558 79.064C34.1603 79.6048 34.3787 80.2621 34.3783 80.9375V99.6875C35.2071 99.6875 36.002 100.017 36.588 100.603C37.1741 101.189 37.5033 101.984 37.5033 102.812C37.5033 103.641 37.1741 104.436 36.588 105.022C36.002 105.608 35.2071 105.937 34.3783 105.937V109.062C34.3783 109.891 34.0491 110.686 33.463 111.272C32.877 111.858 32.0821 112.187 31.2533 112.187C30.4245 112.187 29.6296 111.858 29.0436 111.272C28.4575 110.686 28.1283 109.891 28.1283 109.062V105.937H17.1908C16.63 105.937 16.0796 105.786 15.5974 105.5C15.1153 105.213 14.719 104.802 14.4502 104.31C14.1814 103.818 14.05 103.263 14.0698 102.702C14.0896 102.142 14.2598 101.597 14.5627 101.125L28.6252 79.25C28.9897 78.6813 29.5287 78.2461 30.1613 78.0095C30.794 77.7729 31.4863 77.7476 32.1345 77.9375ZM28.1283 99.6875V91.5781L22.9158 99.6875H28.1283ZM78.4002 16.5875C76.5149 12.0377 73.7519 7.90379 70.2689 4.42187L74.6908 0C78.7534 4.06256 81.976 8.88553 84.1746 14.1935C86.3733 19.5015 87.5049 25.1906 87.5049 30.9359C87.5049 36.6813 86.3733 42.3703 84.1746 47.6783C81.976 52.9863 78.7534 57.8093 74.6908 61.8719L70.2689 57.45C75.5135 52.2059 79.0853 45.5244 80.5326 38.2504C81.9799 30.9764 81.2379 23.4366 78.4002 16.5844V16.5875Z" fill="#64748B"/>
<path fill-rule="evenodd" clip-rule="evenodd" d="M61.0752 23.7624C60.1337 21.4872 58.7533 19.4197 57.0127 17.678L61.4315 13.2593C63.7531 15.5808 65.5947 18.3368 66.8511 21.37C68.1076 24.4032 68.7543 27.6542 68.7543 30.9374C68.7543 34.2206 68.1076 37.4716 66.8511 40.5048C65.5947 43.538 63.7531 46.294 61.4315 48.6155L57.0127 44.1968C59.6348 41.5743 61.4203 38.2331 62.1434 34.5958C62.8665 30.9585 62.4948 27.1884 61.0752 23.7624V23.7624ZM30.494 17.678C28.7525 19.4192 27.3711 21.4863 26.4287 23.7614C25.4862 26.0364 25.0011 28.4748 25.0011 30.9374C25.0011 33.4 25.4862 35.8384 26.4287 38.1134C27.3711 40.3885 28.7525 42.4556 30.494 44.1968L26.0752 48.6155C23.7536 46.294 21.912 43.538 20.6556 40.5048C19.3991 37.4716 18.7524 34.2206 18.7524 30.9374C18.7524 27.6542 19.3991 24.4032 20.6556 21.37C21.912 18.3368 23.7536 15.5808 26.0752 13.2593L30.494 17.678V17.678Z" fill="#64748B"/>
<path fill-rule="evenodd" clip-rule="evenodd" d="M17.2375 4.42187C10.2055 11.4544 6.25491 20.9923 6.25491 30.9375C6.25491 40.8827 10.2055 50.4206 17.2375 57.4531L12.8157 61.875C8.75262 57.8124 5.52962 52.9892 3.3307 47.6809C1.13177 42.3726 0 36.6832 0 30.9375C0 25.1918 1.13177 19.5024 3.3307 14.1941C5.52962 8.88578 8.75262 4.06262 12.8157 0L17.2375 4.42187V4.42187Z" fill="#64748B"/>
<path d="M50.0029 30.9375C50.0029 32.5951 49.3444 34.1848 48.1723 35.3569C47.0002 36.529 45.4105 37.1875 43.7529 37.1875C42.0953 37.1875 40.5056 36.529 39.3335 35.3569C38.1614 34.1848 37.5029 32.5951 37.5029 30.9375C37.5029 29.2799 38.1614 27.6902 39.3335 26.5181C40.5056 25.346 42.0953 24.6875 43.7529 24.6875C45.4105 24.6875 47.0002 25.346 48.1723 26.5181C49.3444 27.6902 50.0029 29.2799 50.0029 30.9375Z" fill="#64748B"/>
<path fill-rule="evenodd" clip-rule="evenodd" d="M71.1065 86.1688C70.5541 86.7867 69.7789 87.1598 68.9514 87.2061C68.1239 87.2524 67.3119 86.9681 66.694 86.4157C65.1611 85.0446 63.2729 84.1331 61.2459 83.7856C59.2189 83.438 57.1349 83.6686 55.2329 84.4507C53.3308 85.2329 51.6875 86.535 50.4913 88.2079C49.2951 89.8809 48.5944 91.857 48.4694 93.9098C48.3445 95.9626 48.8003 98.0091 49.7847 99.8148C50.7691 101.62 52.2423 103.112 54.0354 104.119C55.8285 105.127 57.8691 105.608 59.9233 105.509C61.9775 105.41 63.9623 104.734 65.6502 103.559V97.7001H59.394C58.5652 97.7001 57.7703 97.3708 57.1843 96.7848C56.5982 96.1987 56.269 95.4039 56.269 94.5751C56.269 93.7463 56.5982 92.9514 57.1843 92.3654C57.7703 91.7793 58.5652 91.4501 59.394 91.4501H68.7752C69.604 91.4501 70.3989 91.7793 70.9849 92.3654C71.571 92.9514 71.9002 93.7463 71.9002 94.5751V105.066C71.9002 105.505 71.8075 105.94 71.6282 106.341C71.4489 106.742 71.187 107.101 70.8596 107.394C68.3851 109.607 65.3231 111.056 62.043 111.567C58.763 112.078 55.4052 111.629 52.3748 110.273C49.3445 108.918 46.7713 106.714 44.9656 103.929C43.16 101.143 42.1992 97.8947 42.1992 94.5751C42.1992 91.2554 43.16 88.0068 44.9656 85.2212C46.7713 82.4356 49.3445 80.2322 52.3748 78.8768C55.4052 77.5215 58.763 77.0722 62.043 77.5831C65.3231 78.0941 68.3851 79.5434 70.8596 81.7563C71.4775 82.3087 71.8506 83.0839 71.8969 83.9114C71.9432 84.7389 71.6589 85.5509 71.1065 86.1688Z" fill="#64748B"/>
</svg>
