<svg width="25" height="25" viewBox="0 0 25 25" fill="none" xmlns="http://www.w3.org/2000/svg">
<path d="M12.5 25C10.7917 25 9.17708 24.6717 7.65625 24.015C6.13542 23.3592 4.8075 22.4633 3.6725 21.3275C2.53667 20.1925 1.64083 18.8646 0.985 17.3438C0.328333 15.8229 0 14.2083 0 12.5C0 10.7708 0.328333 9.15125 0.985 7.64125C1.64083 6.13042 2.53667 4.8075 3.6725 3.6725C4.8075 2.53667 6.13542 1.64042 7.65625 0.98375C9.17708 0.327917 10.7917 0 12.5 0C14.2292 0 15.8488 0.327917 17.3588 0.98375C18.8696 1.64042 20.1925 2.53667 21.3275 3.6725C22.4633 4.8075 23.3592 6.13042 24.015 7.64125C24.6717 9.15125 25 10.7708 25 12.5V14.3125C25 15.5417 24.5783 16.5883 23.735 17.4525C22.8908 18.3175 21.8542 18.75 20.625 18.75C19.875 18.75 19.1771 18.5833 18.5313 18.25C17.8854 17.9167 17.3542 17.4792 16.9375 16.9375C16.375 17.5 15.7138 17.9429 14.9538 18.2663C14.1929 18.5888 13.375 18.75 12.5 18.75C10.7708 18.75 9.29708 18.1404 8.07875 16.9212C6.85958 15.7029 6.25 14.2292 6.25 12.5C6.25 10.7708 6.85958 9.29667 8.07875 8.0775C9.29708 6.85917 10.7708 6.25 12.5 6.25C14.2292 6.25 15.7033 6.85917 16.9225 8.0775C18.1408 9.29667 18.75 10.7708 18.75 12.5V14.3125C18.75 14.9167 18.9375 15.3904 19.3125 15.7337C19.6875 16.0779 20.125 16.25 20.625 16.25C21.125 16.25 21.5625 16.0779 21.9375 15.7337C22.3125 15.3904 22.5 14.9167 22.5 14.3125V12.5C22.5 9.77083 21.5154 7.42167 19.5462 5.4525C17.5779 3.48417 15.2292 2.5 12.5 2.5C9.77083 2.5 7.42167 3.48417 5.4525 5.4525C3.48417 7.42167 2.5 9.77083 2.5 12.5C2.5 15.2292 3.48417 17.5779 5.4525 19.5462C7.42167 21.5154 9.77083 22.5 12.5 22.5H18.75V25H12.5ZM12.5 16.25C13.5417 16.25 14.4271 15.8854 15.1562 15.1562C15.8854 14.4271 16.25 13.5417 16.25 12.5C16.25 11.4583 15.8854 10.5729 15.1562 9.84375C14.4271 9.11458 13.5417 8.75 12.5 8.75C11.4583 8.75 10.5729 9.11458 9.84375 9.84375C9.11458 10.5729 8.75 11.4583 8.75 12.5C8.75 13.5417 9.11458 14.4271 9.84375 15.1562C10.5729 15.8854 11.4583 16.25 12.5 16.25Z" fill="#64748B"/>
</svg>
