<svg width="116" height="60" viewBox="0 0 116 60" fill="none" xmlns="http://www.w3.org/2000/svg">
<path d="M27.9836 26.25C28.9782 26.25 29.932 25.8549 30.6353 25.1517C31.3385 24.4484 31.7336 23.4946 31.7336 22.5C31.7336 21.5054 31.3385 20.5516 30.6353 19.8483C29.932 19.1451 28.9782 18.75 27.9836 18.75C26.989 18.75 26.0352 19.1451 25.3319 19.8483C24.6287 20.5516 24.2336 21.5054 24.2336 22.5C24.2336 23.4946 24.6287 24.4484 25.3319 25.1517C26.0352 25.8549 26.989 26.25 27.9836 26.25ZM46.7336 22.5C46.7336 23.4946 46.3385 24.4484 45.6353 25.1517C44.932 25.8549 43.9782 26.25 42.9836 26.25C41.989 26.25 41.0352 25.8549 40.332 25.1517C39.6287 24.4484 39.2336 23.4946 39.2336 22.5C39.2336 21.5054 39.6287 20.5516 40.332 19.8483C41.0352 19.1451 41.989 18.75 42.9836 18.75C43.9782 18.75 44.932 19.1451 45.6353 19.8483C46.3385 20.5516 46.7336 21.5054 46.7336 22.5ZM35.4836 41.25C36.4782 41.25 37.432 40.8549 38.1353 40.1517C38.8385 39.4484 39.2336 38.4946 39.2336 37.5C39.2336 36.5054 38.8385 35.5516 38.1353 34.8483C37.432 34.1451 36.4782 33.75 35.4836 33.75C34.489 33.75 33.5352 34.1451 32.832 34.8483C32.1287 35.5516 31.7336 36.5054 31.7336 37.5C31.7336 38.4946 32.1287 39.4484 32.832 40.1517C33.5352 40.8549 34.489 41.25 35.4836 41.25ZM54.2336 37.5C54.2336 38.4946 53.8385 39.4484 53.1353 40.1517C52.432 40.8549 51.4782 41.25 50.4836 41.25C49.489 41.25 48.5352 40.8549 47.8319 40.1517C47.1287 39.4484 46.7336 38.4946 46.7336 37.5C46.7336 36.5054 47.1287 35.5516 47.8319 34.8483C48.5352 34.1451 49.489 33.75 50.4836 33.75C51.4782 33.75 52.432 34.1451 53.1353 34.8483C53.8385 35.5516 54.2336 36.5054 54.2336 37.5ZM65.4836 41.25C66.4782 41.25 67.432 40.8549 68.1353 40.1517C68.8385 39.4484 69.2336 38.4946 69.2336 37.5C69.2336 36.5054 68.8385 35.5516 68.1353 34.8483C67.432 34.1451 66.4782 33.75 65.4836 33.75C64.489 33.75 63.5352 34.1451 62.8319 34.8483C62.1287 35.5516 61.7336 36.5054 61.7336 37.5C61.7336 38.4946 62.1287 39.4484 62.8319 40.1517C63.5352 40.8549 64.489 41.25 65.4836 41.25ZM84.2336 37.5C84.2336 38.4946 83.8385 39.4484 83.1353 40.1517C82.432 40.8549 81.4782 41.25 80.4836 41.25C79.489 41.25 78.5352 40.8549 77.8319 40.1517C77.1287 39.4484 76.7336 38.4946 76.7336 37.5C76.7336 36.5054 77.1287 35.5516 77.8319 34.8483C78.5352 34.1451 79.489 33.75 80.4836 33.75C81.4782 33.75 82.432 34.1451 83.1353 34.8483C83.8385 35.5516 84.2336 36.5054 84.2336 37.5ZM57.9836 26.25C58.9782 26.25 59.932 25.8549 60.6353 25.1517C61.3385 24.4484 61.7336 23.4946 61.7336 22.5C61.7336 21.5054 61.3385 20.5516 60.6353 19.8483C59.932 19.1451 58.9782 18.75 57.9836 18.75C56.989 18.75 56.0352 19.1451 55.3319 19.8483C54.6287 20.5516 54.2336 21.5054 54.2336 22.5C54.2336 23.4946 54.6287 24.4484 55.3319 25.1517C56.0352 25.8549 56.989 26.25 57.9836 26.25ZM76.7336 22.5C76.7336 23.4946 76.3385 24.4484 75.6353 25.1517C74.932 25.8549 73.9782 26.25 72.9836 26.25C71.989 26.25 71.0352 25.8549 70.3319 25.1517C69.6287 24.4484 69.2336 23.4946 69.2336 22.5C69.2336 21.5054 69.6287 20.5516 70.3319 19.8483C71.0352 19.1451 71.989 18.75 72.9836 18.75C73.9782 18.75 74.932 19.1451 75.6353 19.8483C76.3385 20.5516 76.7336 21.5054 76.7336 22.5ZM87.9836 26.25C88.9782 26.25 89.932 25.8549 90.6353 25.1517C91.3385 24.4484 91.7336 23.4946 91.7336 22.5C91.7336 21.5054 91.3385 20.5516 90.6353 19.8483C89.932 19.1451 88.9782 18.75 87.9836 18.75C86.989 18.75 86.0352 19.1451 85.3319 19.8483C84.6287 20.5516 84.2336 21.5054 84.2336 22.5C84.2336 23.4946 84.6287 24.4484 85.3319 25.1517C86.0352 25.8549 86.989 26.25 87.9836 26.25ZM18.7586 1.97262e-06C15.9341 -0.00129354 13.1458 0.635549 10.6019 1.86297C8.05809 3.09039 5.8244 4.87667 4.0677 7.08841C2.311 9.30015 1.07668 11.8802 0.456931 14.6359C-0.162823 17.3915 -0.151996 20.2516 0.4886 23.0025L5.7311 45.5025C6.69131 49.6259 9.01877 53.303 12.3347 55.9353C15.6506 58.5676 19.7599 60.0002 23.9936 60H91.9586C96.19 59.9989 100.297 58.5666 103.611 55.9359C106.925 53.3052 109.252 49.6308 110.214 45.51L115.464 23.01C116.105 20.2598 116.117 17.4002 115.499 14.6447C114.881 11.8892 113.648 9.30898 111.893 7.09662C110.138 4.88427 107.905 3.09696 105.363 1.86813C102.82 0.639305 100.033 0.000702649 97.2086 1.97262e-06H18.7586ZM7.7861 21.3C7.4018 19.6487 7.3957 17.9319 7.76825 16.2779C8.14081 14.6239 8.88238 13.0755 9.93754 11.7485C10.9927 10.4214 12.3342 9.34999 13.8617 8.6143C15.3892 7.87862 17.0632 7.49769 18.7586 7.5H97.2086C104.461 7.5 109.809 14.25 108.166 21.3L102.916 43.8C102.34 46.2743 100.944 48.4809 98.9543 50.0606C96.9647 51.6403 94.499 52.5001 91.9586 52.5H23.9936C21.4531 52.5001 18.9875 51.6403 16.9979 50.0606C15.0083 48.4809 13.6119 46.2743 13.0361 43.8L7.7936 21.3H7.7861Z" fill="#64748B"/>
</svg>
