<svg width="120" height="120" viewBox="0 0 120 120" fill="none" xmlns="http://www.w3.org/2000/svg">
<path d="M105 101.25V48.75C105 47.7554 104.605 46.8016 103.902 46.0984C103.198 45.3951 102.245 45 101.25 45H90V33.75C90 32.7554 89.6049 31.8016 88.9017 31.0984C88.1984 30.3951 87.2446 30 86.25 30H78.75V26.25C78.75 25.2554 78.3549 24.3016 77.6517 23.5984C76.9484 22.8951 75.9946 22.5 75 22.5H45C44.0054 22.5 43.0516 22.8951 42.3484 23.5984C41.6451 24.3016 41.25 25.2554 41.25 26.25V30H33.75C32.7554 30 31.8016 30.3951 31.0984 31.0984C30.3951 31.8016 30 32.7554 30 33.75V45H18.75C17.7554 45 16.8016 45.3951 16.0984 46.0984C15.3951 46.8016 15 47.7554 15 48.75V101.25C15 102.245 15.3951 103.198 16.0984 103.902C16.8016 104.605 17.7554 105 18.75 105H101.25C102.245 105 103.198 104.605 103.902 103.902C104.605 103.198 105 102.245 105 101.25ZM28.125 82.5H31.875C32.3723 82.5 32.8492 82.6975 33.2008 83.0492C33.5525 83.4008 33.75 83.8777 33.75 84.375V95.625C33.75 96.1223 33.5525 96.5992 33.2008 96.9508C32.8492 97.3025 32.3723 97.5 31.875 97.5H28.125C27.6277 97.5 27.1508 97.3025 26.7992 96.9508C26.4475 96.5992 26.25 96.1223 26.25 95.625V84.375C26.25 83.8777 26.4475 83.4008 26.7992 83.0492C27.1508 82.6975 27.6277 82.5 28.125 82.5ZM43.125 82.5H46.875C47.3723 82.5 47.8492 82.6975 48.2008 83.0492C48.5525 83.4008 48.75 83.8777 48.75 84.375V95.625C48.75 96.1223 48.5525 96.5992 48.2008 96.9508C47.8492 97.3025 47.3723 97.5 46.875 97.5H43.125C42.6277 97.5 42.1508 97.3025 41.7992 96.9508C41.4475 96.5992 41.25 96.1223 41.25 95.625V84.375C41.25 83.8777 41.4475 83.4008 41.7992 83.0492C42.1508 82.6975 42.6277 82.5 43.125 82.5ZM56.25 84.375C56.25 83.8777 56.4475 83.4008 56.7992 83.0492C57.1508 82.6975 57.6277 82.5 58.125 82.5H61.875C62.3723 82.5 62.8492 82.6975 63.2008 83.0492C63.5525 83.4008 63.75 83.8777 63.75 84.375V95.625C63.75 96.1223 63.5525 96.5992 63.2008 96.9508C62.8492 97.3025 62.3723 97.5 61.875 97.5H58.125C57.6277 97.5 57.1508 97.3025 56.7992 96.9508C56.4475 96.5992 56.25 96.1223 56.25 95.625V84.375ZM73.125 82.5H76.875C77.3723 82.5 77.8492 82.6975 78.2008 83.0492C78.5525 83.4008 78.75 83.8777 78.75 84.375V95.625C78.75 96.1223 78.5525 96.5992 78.2008 96.9508C77.8492 97.3025 77.3723 97.5 76.875 97.5H73.125C72.6277 97.5 72.1508 97.3025 71.7992 96.9508C71.4475 96.5992 71.25 96.1223 71.25 95.625V84.375C71.25 83.8777 71.4475 83.4008 71.7992 83.0492C72.1508 82.6975 72.6277 82.5 73.125 82.5ZM86.25 84.375C86.25 83.8777 86.4475 83.4008 86.7992 83.0492C87.1508 82.6975 87.6277 82.5 88.125 82.5H91.875C92.3723 82.5 92.8492 82.6975 93.2008 83.0492C93.5525 83.4008 93.75 83.8777 93.75 84.375V95.625C93.75 96.1223 93.5525 96.5992 93.2008 96.9508C92.8492 97.3025 92.3723 97.5 91.875 97.5H88.125C87.6277 97.5 87.1508 97.3025 86.7992 96.9508C86.4475 96.5992 86.25 96.1223 86.25 95.625V84.375Z" fill="#64748B"/>
<path d="M15 0C11.0218 0 7.20644 1.58035 4.3934 4.3934C1.58035 7.20644 0 11.0218 0 15L0 105C0 108.978 1.58035 112.794 4.3934 115.607C7.20644 118.42 11.0218 120 15 120H105C108.978 120 112.794 118.42 115.607 115.607C118.42 112.794 120 108.978 120 105V15C120 11.0218 118.42 7.20644 115.607 4.3934C112.794 1.58035 108.978 0 105 0L15 0ZM7.5 15C7.5 13.0109 8.29018 11.1032 9.6967 9.6967C11.1032 8.29018 13.0109 7.5 15 7.5H105C106.989 7.5 108.897 8.29018 110.303 9.6967C111.71 11.1032 112.5 13.0109 112.5 15V105C112.5 106.989 111.71 108.897 110.303 110.303C108.897 111.71 106.989 112.5 105 112.5H15C13.0109 112.5 11.1032 111.71 9.6967 110.303C8.29018 108.897 7.5 106.989 7.5 105V15Z" fill="#64748B"/>
</svg>
