<svg width="137" height="88" viewBox="0 0 137 88" fill="none" xmlns="http://www.w3.org/2000/svg">
<path fill-rule="evenodd" clip-rule="evenodd" d="M46.9055 4C40.6051 4 34.4133 5.63939 28.9384 8.75703L23.7035 11.738C22.7437 12.2846 21.5225 11.9495 20.9759 10.9897C20.4293 10.0298 20.7643 8.80861 21.7242 8.26203L26.959 5.28109C33.037 1.81999 39.9111 0 46.9055 0C54.4228 0 61.7903 2.10211 68.1759 6.06888L71.7692 8.30112C72.7075 8.88398 72.9956 10.1171 72.4128 11.0554C71.8299 11.9936 70.5968 12.2817 69.6585 11.6989L66.0651 9.46664C60.3133 5.89351 53.6768 4 46.9055 4ZM8.26611 23.5122V53.209H25.021C26.3569 53.209 27.3774 53.5337 28.0825 54.1831C28.8062 54.8325 29.168 55.6489 29.168 56.6323C29.168 57.6343 28.8154 58.4507 28.1104 59.0815C27.4053 59.6938 26.3755 60 25.021 60H5.06543C3.26562 60 1.9668 59.6011 1.16895 58.8032C0.389648 58.0054 0 56.7158 0 54.9346V23.5122C0 21.8423 0.371094 20.5898 1.11328 19.7549C1.87402 18.9199 2.8667 18.5024 4.09131 18.5024C5.33447 18.5024 6.33643 18.9199 7.09717 19.7549C7.87646 20.5713 8.26611 21.8237 8.26611 23.5122ZM62.5386 45.249C62.5386 47.5127 62.186 49.6001 61.481 51.5112C60.7759 53.4224 59.7554 55.0645 58.4194 56.4375C57.0835 57.8105 55.4878 58.8682 53.6323 59.6104C51.7769 60.334 49.6895 60.6958 47.3701 60.6958C45.0693 60.6958 43.0005 60.3247 41.1636 59.5825C39.3267 58.8403 37.731 57.7827 36.3765 56.4097C35.0405 55.0181 34.02 53.3853 33.3149 51.5112C32.6284 49.6187 32.2852 47.5312 32.2852 45.249C32.2852 42.9482 32.6377 40.8423 33.3428 38.9312C34.0479 37.02 35.0591 35.3872 36.3765 34.0327C37.6938 32.6782 39.2896 31.6392 41.1636 30.9155C43.0376 30.1733 45.1064 29.8022 47.3701 29.8022C49.6709 29.8022 51.7583 30.1733 53.6323 30.9155C55.5063 31.6577 57.1113 32.7153 58.4473 34.0884C59.7832 35.4614 60.7944 37.0942 61.481 38.9868C62.186 40.8794 62.5386 42.9668 62.5386 45.249ZM54.9126 45.249C54.9126 42.1504 54.2261 39.7383 52.853 38.0127C51.4985 36.2871 49.6709 35.4243 47.3701 35.4243C45.8857 35.4243 44.5776 35.814 43.4458 36.5933C42.314 37.354 41.4419 38.4858 40.8296 39.9888C40.2173 41.4917 39.9111 43.2451 39.9111 45.249C39.9111 47.2344 40.208 48.9692 40.8018 50.4536C41.4141 51.938 42.2769 53.0791 43.3901 53.877C44.522 54.6562 45.8486 55.0459 47.3701 55.0459C49.6709 55.0459 51.4985 54.1831 52.853 52.4575C54.2261 50.7134 54.9126 48.3105 54.9126 45.249ZM80.1841 42.5493H77.2896V55.6582C77.2896 57.3838 76.9092 58.6548 76.1484 59.4712C75.3877 60.2876 74.395 60.6958 73.1704 60.6958C71.853 60.6958 70.8325 60.269 70.1089 59.4155C69.3853 58.562 69.0234 57.3096 69.0234 55.6582V24.2637C69.0234 22.4824 69.4224 21.1929 70.2202 20.395C71.0181 19.5972 72.3076 19.1982 74.0889 19.1982H87.5317C89.3872 19.1982 90.9736 19.2817 92.291 19.4487C93.6084 19.5972 94.7959 19.9126 95.8535 20.395C97.1338 20.9331 98.2656 21.7031 99.249 22.7051C100.232 23.707 100.975 24.876 101.476 26.2119C101.995 27.5293 102.255 28.9302 102.255 30.4146C102.255 33.4575 101.392 35.8882 99.6665 37.7065C97.9595 39.5249 95.3618 40.8145 91.8735 41.5752C93.3394 42.3545 94.7402 43.5049 96.0762 45.0264C97.4121 46.5479 98.5996 48.1714 99.6387 49.897C100.696 51.604 101.513 53.1533 102.088 54.5449C102.682 55.918 102.979 56.8643 102.979 57.3838C102.979 57.9219 102.802 58.46 102.45 58.998C102.116 59.5176 101.652 59.9258 101.058 60.2227C100.464 60.5381 99.7778 60.6958 98.9985 60.6958C98.0708 60.6958 97.2915 60.4731 96.6606 60.0278C96.0298 59.6011 95.4824 59.0537 95.0186 58.3857C94.5732 57.7178 93.9609 56.7344 93.1816 55.4355L89.8696 49.9248C88.6821 47.9023 87.6152 46.3623 86.6689 45.3047C85.7412 44.2471 84.7949 43.5234 83.8301 43.1338C82.8652 42.7441 81.6499 42.5493 80.1841 42.5493ZM84.9155 25.4048H77.2896V36.6211H84.6929C86.6782 36.6211 88.3481 36.4541 89.7026 36.1201C91.0571 35.7676 92.0869 35.1831 92.792 34.3667C93.5156 33.5317 93.8774 32.3906 93.8774 30.9434C93.8774 29.8115 93.5898 28.8188 93.0146 27.9653C92.4395 27.0933 91.6416 26.4438 90.6211 26.0171C89.6562 25.6089 87.7544 25.4048 84.9155 25.4048ZM128 56.4097C126.163 57.8384 124.381 58.9146 122.656 59.6382C120.949 60.3433 119.028 60.6958 116.895 60.6958C114.946 60.6958 113.23 60.3154 111.746 59.5547C110.28 58.7754 109.148 57.7271 108.35 56.4097C107.552 55.0923 107.153 53.6636 107.153 52.1235C107.153 50.0454 107.812 48.2734 109.129 46.8076C110.447 45.3418 112.256 44.3584 114.557 43.8574C115.039 43.7461 116.236 43.4956 118.147 43.106C120.058 42.7163 121.691 42.3638 123.045 42.0483C124.418 41.7144 125.903 41.3154 127.499 40.8516C127.406 38.8477 126.998 37.3818 126.274 36.4541C125.569 35.5078 124.094 35.0347 121.849 35.0347C119.919 35.0347 118.462 35.3037 117.479 35.8418C116.514 36.3799 115.679 37.187 114.974 38.2632C114.288 39.3394 113.796 40.0537 113.499 40.4062C113.221 40.7402 112.608 40.9072 111.662 40.9072C110.809 40.9072 110.066 40.6382 109.436 40.1001C108.823 39.5435 108.517 38.8384 108.517 37.9849C108.517 36.6489 108.99 35.3501 109.937 34.0884C110.883 32.8267 112.358 31.7876 114.362 30.9712C116.366 30.1548 118.861 29.7466 121.849 29.7466C125.188 29.7466 127.814 30.1455 129.725 30.9434C131.636 31.7227 132.981 32.9658 133.761 34.6729C134.559 36.3799 134.958 38.6436 134.958 41.4639C134.958 43.2451 134.948 44.7573 134.93 46.0005C134.93 47.2437 134.92 48.626 134.902 50.1475C134.902 51.5762 135.134 53.0698 135.598 54.6284C136.08 56.1685 136.321 57.1611 136.321 57.6064C136.321 58.3857 135.95 59.1001 135.208 59.7495C134.484 60.3804 133.659 60.6958 132.731 60.6958C131.952 60.6958 131.182 60.334 130.421 59.6104C129.66 58.8682 128.853 57.8013 128 56.4097ZM127.499 45.416C126.385 45.8242 124.762 46.2603 122.628 46.7241C120.513 47.1694 119.047 47.5034 118.23 47.7261C117.414 47.9302 116.635 48.3477 115.893 48.9785C115.15 49.5908 114.779 50.4536 114.779 51.5669C114.779 52.7173 115.215 53.7007 116.087 54.5171C116.959 55.3149 118.101 55.7139 119.511 55.7139C121.014 55.7139 122.396 55.3892 123.658 54.7397C124.938 54.0718 125.875 53.2183 126.469 52.1792C127.155 51.0288 127.499 49.1362 127.499 46.5015V45.416ZM32.7822 16.5099C36.8316 13.8924 41.5507 12.5 46.3724 12.5C51.5383 12.5 56.5777 14.0981 60.7994 17.0751L63.8494 19.2259C64.5265 19.7033 65.4623 19.5415 65.9397 18.8644C66.4172 18.1874 66.2553 17.2515 65.5783 16.7741L62.5283 14.6234C57.8006 11.2896 52.1573 9.5 46.3724 9.5C40.9729 9.5 35.6883 11.0593 31.1537 13.9904L26.8996 16.7403C26.2038 17.19 26.0044 18.1186 26.4541 18.8143C26.9039 19.51 27.8324 19.7095 28.5282 19.2597L32.7822 16.5099ZM46.3318 20.5C42.586 20.5 38.9086 21.5026 35.6812 23.4038L32.4752 25.2924C31.7614 25.7129 30.8419 25.4751 30.4214 24.7613C30.001 24.0476 30.2387 23.1281 30.9525 22.7076L34.1585 20.819C37.8473 18.646 42.0505 17.5 46.3318 17.5C50.9294 17.5 55.4302 18.8215 59.298 21.3071L61.5248 22.7381C62.2217 23.186 62.4236 24.114 61.9758 24.8109C61.5279 25.5079 60.5999 25.7098 59.9029 25.2619L57.6761 23.8309C54.2921 21.6562 50.3543 20.5 46.3318 20.5ZM35.6812 62.5962C38.9086 64.4974 42.586 65.5 46.3318 65.5C50.3543 65.5 54.2921 64.3438 57.6761 62.1691L59.9029 60.7381C60.5999 60.2902 61.5279 60.4921 61.9758 61.1891C62.4236 61.886 62.2217 62.814 61.5248 63.2619L59.298 64.6929C55.4302 67.1785 50.9294 68.5 46.3318 68.5C42.0505 68.5 37.8473 67.354 34.1585 65.181L30.9525 63.2924C30.2387 62.8719 30.001 61.9524 30.4214 61.2387C30.8419 60.5249 31.7614 60.2871 32.4752 60.7076L35.6812 62.5962ZM46.3724 74.5C41.5507 74.5 36.8316 73.1076 32.7822 70.4901L28.5282 67.7403C27.8324 67.2905 26.9039 67.49 26.4541 68.1857C26.0044 68.8814 26.2038 69.81 26.8996 70.2597L31.1537 73.0096C35.6883 75.9407 40.9729 77.5 46.3724 77.5C52.1573 77.5 57.8006 75.7104 62.5283 72.3766L65.5783 70.2259C66.2553 69.7485 66.4172 68.8126 65.9397 68.1356C65.4623 67.4585 64.5265 67.2967 63.8494 67.7741L60.7994 69.9249C56.5777 72.9019 51.5383 74.5 46.3724 74.5ZM28.9384 79.243C34.4133 82.3606 40.6051 84 46.9055 84C53.6768 84 60.3133 82.1065 66.0651 78.5334L69.6585 76.3011C70.5968 75.7183 71.8299 76.0064 72.4128 76.9446C72.9956 77.8829 72.7075 79.116 71.7692 79.6989L68.1759 81.9311C61.7903 85.8979 54.4228 88 46.9055 88C39.9111 88 33.037 86.18 26.959 82.7189L21.7242 79.738C20.7643 79.1914 20.4293 77.9702 20.9759 77.0103C21.5225 76.0505 22.7437 75.7154 23.7035 76.262L28.9384 79.243Z" fill="#64748B"/>
</svg>
