<svg width="50" height="50" viewBox="0 0 50 50" fill="none" xmlns="http://www.w3.org/2000/svg">
<path d="M8.33333 37.5C7.74306 37.5 7.24861 37.3 6.85 36.9C6.45 36.5014 6.25 36.0069 6.25 35.4167C6.25 34.8264 6.45 34.3319 6.85 33.9333C7.24861 33.5333 7.74306 33.3333 8.33333 33.3333H41.6667C42.2569 33.3333 42.7514 33.5333 43.15 33.9333C43.55 34.3319 43.75 34.8264 43.75 35.4167C43.75 36.0069 43.55 36.5014 43.15 36.9C42.7514 37.3 42.2569 37.5 41.6667 37.5H8.33333ZM8.33333 27.0833C7.74306 27.0833 7.24861 26.8833 6.85 26.4833C6.45 26.0847 6.25 25.5903 6.25 25C6.25 24.4097 6.45 23.9146 6.85 23.5146C7.24861 23.116 7.74306 22.9167 8.33333 22.9167H41.6667C42.2569 22.9167 42.7514 23.116 43.15 23.5146C43.55 23.9146 43.75 24.4097 43.75 25C43.75 25.5903 43.55 26.0847 43.15 26.4833C42.7514 26.8833 42.2569 27.0833 41.6667 27.0833H8.33333ZM8.33333 16.6667C7.74306 16.6667 7.24861 16.4674 6.85 16.0687C6.45 15.6687 6.25 15.1736 6.25 14.5833C6.25 13.9931 6.45 13.4979 6.85 13.0979C7.24861 12.6993 7.74306 12.5 8.33333 12.5H41.6667C42.2569 12.5 42.7514 12.6993 43.15 13.0979C43.55 13.4979 43.75 13.9931 43.75 14.5833C43.75 15.1736 43.55 15.6687 43.15 16.0687C42.7514 16.4674 42.2569 16.6667 41.6667 16.6667H8.33333Z" fill="#64748B"/>
</svg>
