<svg width="25" height="25" viewBox="0 0 25 25" fill="none" xmlns="http://www.w3.org/2000/svg">
<path d="M22.9688 15.7964L17.4504 13.3225L17.4293 13.3132C17.0706 13.1585 16.6789 13.0963 16.2899 13.1321C15.9009 13.1679 15.5272 13.3007 15.2027 13.5182C15.1573 13.5487 15.1135 13.5815 15.0715 13.6167L12.457 15.8432C10.9336 15.0171 9.35977 13.4561 8.53243 11.9514L10.766 9.29597C10.8019 9.25311 10.8352 9.20811 10.8656 9.1612C11.0775 8.83795 11.2061 8.46732 11.24 8.08232C11.274 7.69732 11.2122 7.3099 11.0602 6.95456C11.0566 6.94776 11.0534 6.94071 11.0508 6.93347L8.57813 1.40574C8.37517 0.943458 8.02877 0.558807 7.59019 0.308707C7.15162 0.0586071 6.64418 -0.0436519 6.14298 0.0170635C4.44185 0.240532 2.88023 1.07559 1.74978 2.36627C0.619328 3.65695 -0.00265032 5.31499 8.48915e-06 7.03074C8.48915e-06 16.5944 7.78009 24.3745 17.3438 24.3745C19.0595 24.3771 20.7175 23.7552 22.0082 22.6247C23.2989 21.4943 24.134 19.9326 24.3574 18.2315C24.4181 17.7303 24.3159 17.2229 24.0658 16.7843C23.8157 16.3457 23.431 15.9993 22.9688 15.7964ZM17.3438 21.562C13.4913 21.5573 9.79788 20.0249 7.07375 17.3007C4.34962 14.5766 2.81716 10.8832 2.81251 7.03074C2.80982 6.05983 3.13944 5.11724 3.74659 4.35958C4.35373 3.60193 5.20185 3.07484 6.15001 2.86589L8.35548 7.78777L6.11016 10.462C6.07387 10.5052 6.04022 10.5506 6.00938 10.5979C5.78807 10.9361 5.65796 11.3257 5.63168 11.729C5.6054 12.1323 5.68384 12.5355 5.85938 12.8995C6.96329 15.1589 9.2379 17.4182 11.5207 18.5245C11.8872 18.6982 12.2924 18.7739 12.6968 18.7441C13.1013 18.7143 13.4911 18.5801 13.8281 18.3546C13.8734 18.324 13.9169 18.2907 13.9582 18.255L16.5867 16.0202L21.5086 18.2245C21.2997 19.1726 20.7726 20.0208 20.0149 20.6279C19.2573 21.2351 18.3147 21.5647 17.3438 21.562Z" fill="#64748B"/>
</svg>
