<svg width="143" height="100" viewBox="0 0 143 100" fill="none" xmlns="http://www.w3.org/2000/svg">
<path d="M29.2188 64.2187C27.3438 62.3437 26.4583 60.1042 26.5625 57.5C26.6667 54.8958 27.7083 52.8646 29.6875 51.4063C35.4167 47.0313 41.7979 43.6187 48.8312 41.1687C55.8604 38.7229 63.2812 37.5 71.0938 37.5C79.0104 37.5 86.4854 38.75 93.5188 41.25C100.548 43.75 106.927 47.2396 112.656 51.7187C114.635 53.1771 115.652 55.1833 115.706 57.7375C115.756 60.2875 114.844 62.5 112.969 64.375C111.198 66.1458 109.038 67.0583 106.488 67.1125C103.933 67.1625 101.562 66.4583 99.375 65C95.3125 62.1875 90.9125 60.0271 86.175 58.5187C81.4333 57.0062 76.4063 56.25 71.0938 56.25C65.7812 56.25 60.7563 57.0312 56.0188 58.5938C51.2771 60.1562 46.9271 62.2917 42.9688 65C40.6771 66.5625 38.2562 67.2667 35.7062 67.1125C33.1521 66.9542 30.9896 65.9896 29.2188 64.2187ZM2.65625 37.8125C0.885416 36.0417 0 33.8792 0 31.325C0 28.775 0.9375 26.6667 2.8125 25C12.0833 17.1875 22.5 11.0667 34.0625 6.6375C45.625 2.2125 57.9688 0 71.0938 0C84.2187 0 96.5625 2.2125 108.125 6.6375C119.687 11.0667 130.104 17.1875 139.375 25C141.25 26.6667 142.215 28.75 142.269 31.25C142.319 33.75 141.406 35.9375 139.531 37.8125C137.76 39.5833 135.6 40.5208 133.05 40.625C130.496 40.7292 128.177 39.9479 126.094 38.2812C118.49 32.1354 110.027 27.3437 100.706 23.9062C91.3813 20.4687 81.5104 18.75 71.0938 18.75C60.6771 18.75 50.8083 20.4687 41.4875 23.9062C32.1625 27.3437 23.6979 32.1354 16.0938 38.2812C14.0104 39.9479 11.6938 40.7292 9.14375 40.625C6.58958 40.5208 4.42708 39.5833 2.65625 37.8125ZM71.0938 100C67.5521 100 64.5833 98.8021 62.1875 96.4062C59.7917 94.0104 58.5938 91.0417 58.5938 87.5C58.5938 83.9583 59.7917 80.9896 62.1875 78.5938C64.5833 76.1979 67.5521 75 71.0938 75C74.6354 75 77.6042 76.1979 80 78.5938C82.3958 80.9896 83.5938 83.9583 83.5938 87.5C83.5938 91.0417 82.3958 94.0104 80 96.4062C77.6042 98.8021 74.6354 100 71.0938 100Z" fill="#64748B"/>
</svg>
