<svg width="99" height="53" viewBox="0 0 99 53" fill="none" xmlns="http://www.w3.org/2000/svg">
<rect x="10" y="1.99994" width="8" height="8" fill="#14988B"/>
<rect x="2.0166" y="10.0165" width="8" height="8" fill="#BEDEF5"/>
<rect x="18" y="10" width="8" height="8" fill="#14988B"/>
<rect x="10" y="9.99994" width="8" height="8" fill="#58C7DA"/>
<path d="M10 26V26C5.58176 26 1.99995 22.4183 1.99995 18.0001V18.0001H10V26Z" fill="#58C7DA"/>
<path d="M26 18C26 22.4183 22.4183 26 18 26V26V18H26V18Z" fill="#70B2E2"/>
<rect x="10" y="18" width="8" height="8" fill="#BEDEF5"/>
<path d="M8 8H0V8C0 3.58172 3.58172 0 8 0V0V8Z" fill="#70B2E2"/>
<path d="M26 10L18 10V1.99999V1.99999C22.4182 1.99999 26 5.58172 26 10V10Z" fill="#0D6064"/>
<path d="M44.2 15.24V18.504H41.64V15.368C41.64 14.1733 41.2987 13.2987 40.616 12.744C39.9547 12.1893 39.0587 11.912 37.928 11.912C37.0747 11.912 36.3173 12.0187 35.656 12.232C34.9947 12.4453 34.4293 12.6907 33.96 12.968V18.504H31.4V13.096C31.4 12.648 31.4853 12.2853 31.656 12.008C31.848 11.7093 32.168 11.4213 32.616 11.144C33.1707 10.824 33.9067 10.5253 34.824 10.248C35.7413 9.94933 36.776 9.8 37.928 9.8C39.8693 9.8 41.3947 10.248 42.504 11.144C43.6347 12.0187 44.2 13.384 44.2 15.24ZM31.4 16.744H33.96V24.936C33.8533 24.9787 33.6933 25.0213 33.48 25.064C33.2667 25.128 33.032 25.16 32.776 25.16C32.328 25.16 31.9867 25.0747 31.752 24.904C31.5173 24.712 31.4 24.4133 31.4 24.008V16.744ZM41.64 16.744H44.2V24.936C44.0933 24.9787 43.9227 25.0213 43.688 25.064C43.4747 25.128 43.2507 25.16 43.016 25.16C42.5467 25.16 42.1947 25.0747 41.96 24.904C41.7467 24.712 41.64 24.4133 41.64 24.008V16.744ZM51.2018 19.24L51.0738 17.224L60.7378 15.912C60.6524 14.7387 60.2471 13.7787 59.5218 13.032C58.7964 12.264 57.7938 11.88 56.5138 11.88C55.1911 11.88 54.0924 12.36 53.2178 13.32C52.3644 14.2587 51.9378 15.6133 51.9378 17.384V18.088C52.0871 19.7947 52.6418 21.096 53.6018 21.992C54.5831 22.8667 55.9164 23.304 57.6018 23.304C58.4978 23.304 59.3084 23.1547 60.0338 22.856C60.7591 22.5573 61.3351 22.2373 61.7618 21.896C61.9964 22.0453 62.1778 22.2267 62.3058 22.44C62.4551 22.632 62.5298 22.856 62.5298 23.112C62.5298 23.5173 62.2951 23.9013 61.8258 24.264C61.3778 24.6053 60.7698 24.8827 60.0018 25.096C59.2551 25.3093 58.4124 25.416 57.4738 25.416C55.8311 25.416 54.4018 25.1173 53.1858 24.52C51.9911 23.9227 51.0631 23.0373 50.4018 21.864C49.7618 20.6693 49.4418 19.2187 49.4418 17.512C49.4418 16.296 49.6124 15.2187 49.9538 14.28C50.3164 13.32 50.8071 12.5093 51.4258 11.848C52.0658 11.1867 52.8231 10.6853 53.6978 10.344C54.5724 9.98133 55.5218 9.8 56.5458 9.8C57.8471 9.8 58.9884 10.0773 59.9698 10.632C60.9724 11.1867 61.7511 11.9653 62.3058 12.968C62.8818 13.9493 63.1698 15.08 63.1698 16.36C63.1698 16.8293 63.0631 17.1707 62.8498 17.384C62.6364 17.576 62.3378 17.6933 61.9538 17.736L51.2018 19.24Z" fill="#64748B"/>
<path d="M16.48 41.048C16.48 43.7147 15.84 45.7413 14.56 47.128C13.28 48.4933 11.392 49.176 8.896 49.176C8.27733 49.176 7.66933 49.1547 7.072 49.112C6.496 49.0693 5.952 48.984 5.44 48.856V33.624C5.86667 33.5387 6.336 33.4747 6.848 33.432C7.36 33.3893 7.94667 33.368 8.608 33.368C10.0587 33.368 11.3707 33.6347 12.544 34.168C13.7387 34.68 14.688 35.5013 15.392 36.632C16.1173 37.7413 16.48 39.2133 16.48 41.048ZM19.136 41.048C19.136 38.8507 18.688 37.0267 17.792 35.576C16.9173 34.1253 15.6907 33.0373 14.112 32.312C12.5547 31.5653 10.7307 31.192 8.64 31.192C7.808 31.192 6.976 31.224 6.144 31.288C5.312 31.352 4.56533 31.4907 3.904 31.704C3.56267 31.8107 3.296 31.96 3.104 32.152C2.93333 32.3227 2.848 32.5787 2.848 32.92V49.368C2.848 50.072 3.296 50.5627 4.192 50.84C4.96 51.0747 5.77067 51.2133 6.624 51.256C7.49867 51.32 8.26667 51.352 8.928 51.352C10.9973 51.352 12.7893 50.9787 14.304 50.232C15.84 49.4853 17.024 48.3547 17.856 46.84C18.7093 45.304 19.136 43.3733 19.136 41.048ZM25.5455 45.24L25.4175 43.224L35.0815 41.912C34.9962 40.7387 34.5908 39.7787 33.8655 39.032C33.1402 38.264 32.1375 37.88 30.8575 37.88C29.5348 37.88 28.4362 38.36 27.5615 39.32C26.7082 40.2587 26.2815 41.6133 26.2815 43.384V44.088C26.4308 45.7947 26.9855 47.096 27.9455 47.992C28.9268 48.8667 30.2602 49.304 31.9455 49.304C32.8415 49.304 33.6522 49.1547 34.3775 48.856C35.1028 48.5573 35.6788 48.2373 36.1055 47.896C36.3402 48.0453 36.5215 48.2267 36.6495 48.44C36.7988 48.632 36.8735 48.856 36.8735 49.112C36.8735 49.5173 36.6388 49.9013 36.1695 50.264C35.7215 50.6053 35.1135 50.8827 34.3455 51.096C33.5988 51.3093 32.7562 51.416 31.8175 51.416C30.1748 51.416 28.7455 51.1173 27.5295 50.52C26.3348 49.9227 25.4068 49.0373 24.7455 47.864C24.1055 46.6693 23.7855 45.2187 23.7855 43.512C23.7855 42.296 23.9562 41.2187 24.2975 40.28C24.6602 39.32 25.1508 38.5093 25.7695 37.848C26.4095 37.1867 27.1668 36.6853 28.0415 36.344C28.9162 35.9813 29.8655 35.8 30.8895 35.8C32.1908 35.8 33.3322 36.0773 34.3135 36.632C35.3162 37.1867 36.0948 37.9653 36.6495 38.968C37.2255 39.9493 37.5135 41.08 37.5135 42.36C37.5135 42.8293 37.4068 43.1707 37.1935 43.384C36.9802 43.576 36.6815 43.6933 36.2975 43.736L25.5455 45.24ZM53.4383 35.928C53.8009 35.928 54.0889 36.024 54.3023 36.216C54.5369 36.408 54.6543 36.6853 54.6543 37.048C54.6543 37.3253 54.5369 37.848 54.3023 38.616C54.0676 39.384 53.7583 40.3013 53.3743 41.368C52.9903 42.4347 52.5636 43.5547 52.0943 44.728C51.6463 45.88 51.1769 47 50.6863 48.088C50.2169 49.1547 49.7796 50.0827 49.3743 50.872C49.2676 50.9573 49.0756 51.032 48.7983 51.096C48.5423 51.16 48.2649 51.192 47.9663 51.192C47.6036 51.192 47.2836 51.128 47.0063 51C46.7289 50.8933 46.5369 50.7333 46.4303 50.52C46.1956 50.0933 45.8863 49.4747 45.5023 48.664C45.1396 47.832 44.7449 46.8933 44.3183 45.848C43.8916 44.8027 43.4543 43.7253 43.0063 42.616C42.5796 41.4853 42.1849 40.408 41.8223 39.384C41.4596 38.3387 41.1609 37.4213 40.9263 36.632C41.0756 36.4187 41.2783 36.248 41.5343 36.12C41.7903 35.992 42.0463 35.928 42.3023 35.928C42.6863 35.928 42.9849 36.024 43.1983 36.216C43.4116 36.408 43.5929 36.728 43.7423 37.176L45.7263 42.904C45.8969 43.3947 46.1209 44.0027 46.3983 44.728C46.6756 45.4533 46.9529 46.1787 47.2303 46.904C47.5076 47.6293 47.7316 48.2373 47.9023 48.728H48.0303C48.8836 46.5733 49.6836 44.4507 50.4303 42.36C51.1769 40.248 51.8169 38.1893 52.3503 36.184C52.6276 36.0133 52.9903 35.928 53.4383 35.928ZM59.266 31.544C59.266 31.096 59.426 30.7227 59.746 30.424C60.066 30.104 60.4607 29.944 60.93 29.944C61.4207 29.944 61.8153 30.104 62.114 30.424C62.4127 30.7227 62.562 31.096 62.562 31.544C62.562 31.992 62.4127 32.376 62.114 32.696C61.8153 32.9947 61.4207 33.144 60.93 33.144C60.4607 33.144 60.066 32.9947 59.746 32.696C59.426 32.376 59.266 31.992 59.266 31.544ZM59.65 42.552H62.21V50.936C62.1033 50.9787 61.9433 51.0213 61.73 51.064C61.5167 51.128 61.282 51.16 61.026 51.16C60.578 51.16 60.2367 51.0747 60.002 50.904C59.7673 50.712 59.65 50.4133 59.65 50.008V42.552ZM62.21 43.8H59.65V36.28C59.7567 36.2373 59.9167 36.1947 60.13 36.152C60.3647 36.088 60.61 36.056 60.866 36.056C61.314 36.056 61.6447 36.152 61.858 36.344C62.0927 36.5147 62.21 36.8133 62.21 37.24V43.8ZM75.3368 37.944C73.8861 37.944 72.6808 38.4347 71.7208 39.416C70.7608 40.3973 70.2808 41.8053 70.2808 43.64C70.2808 45.4533 70.7394 46.8507 71.6568 47.832C72.5954 48.8133 73.8221 49.304 75.3368 49.304C76.2328 49.304 76.9794 49.1867 77.5768 48.952C78.1741 48.696 78.7074 48.408 79.1768 48.088C79.4114 48.216 79.6034 48.376 79.7528 48.568C79.9021 48.76 79.9768 48.9947 79.9768 49.272C79.9768 49.8693 79.5288 50.3813 78.6328 50.808C77.7581 51.2133 76.6594 51.416 75.3368 51.416C73.8648 51.416 72.5421 51.1387 71.3688 50.584C70.2168 50.008 69.3101 49.144 68.6488 47.992C67.9874 46.84 67.6568 45.3893 67.6568 43.64C67.6568 41.912 67.9981 40.472 68.6808 39.32C69.3634 38.1467 70.2808 37.272 71.4328 36.696C72.6061 36.0987 73.8861 35.8 75.2728 35.8C76.5954 35.8 77.6834 36.024 78.5368 36.472C79.4114 36.92 79.8488 37.432 79.8488 38.008C79.8488 38.264 79.7741 38.488 79.6248 38.68C79.4754 38.872 79.2834 39.0213 79.0488 39.128C78.5794 38.808 78.0568 38.5307 77.4808 38.296C76.9261 38.0613 76.2114 37.944 75.3368 37.944ZM85.603 45.24L85.475 43.224L95.139 41.912C95.0537 40.7387 94.6483 39.7787 93.923 39.032C93.1977 38.264 92.195 37.88 90.915 37.88C89.5923 37.88 88.4937 38.36 87.619 39.32C86.7657 40.2587 86.339 41.6133 86.339 43.384V44.088C86.4883 45.7947 87.043 47.096 88.003 47.992C88.9843 48.8667 90.3177 49.304 92.003 49.304C92.899 49.304 93.7097 49.1547 94.435 48.856C95.1603 48.5573 95.7363 48.2373 96.163 47.896C96.3977 48.0453 96.579 48.2267 96.707 48.44C96.8563 48.632 96.931 48.856 96.931 49.112C96.931 49.5173 96.6963 49.9013 96.227 50.264C95.779 50.6053 95.171 50.8827 94.403 51.096C93.6563 51.3093 92.8137 51.416 91.875 51.416C90.2323 51.416 88.803 51.1173 87.587 50.52C86.3923 49.9227 85.4643 49.0373 84.803 47.864C84.163 46.6693 83.843 45.2187 83.843 43.512C83.843 42.296 84.0137 41.2187 84.355 40.28C84.7177 39.32 85.2083 38.5093 85.827 37.848C86.467 37.1867 87.2243 36.6853 88.099 36.344C88.9737 35.9813 89.923 35.8 90.947 35.8C92.2483 35.8 93.3897 36.0773 94.371 36.632C95.3737 37.1867 96.1523 37.9653 96.707 38.968C97.283 39.9493 97.571 41.08 97.571 42.36C97.571 42.8293 97.4643 43.1707 97.251 43.384C97.0377 43.576 96.739 43.6933 96.355 43.736L85.603 45.24Z" fill="#64748B"/>
</svg>
